<svg xmlns="http://www.w3.org/2000/svg" width="400" height="300" xmlns:v="https://vecta.io/nano"><path d="M106.191 251.905v11.21c-11.064 2.702-22.127 5.736-33.191 9.13v-30.129-30.13l32.421-.173v11.249l-20.844 1.261v9.572l18.354-1.921v11.006l-18.354 2.919v10.392l21.614-4.386h0zm43.022-40.239v22.024 22.024l-9.626 1.241-9.138-11.019-9.113-11.665v12.851 12.843l-11.449 2.324v-25.245-25.251l9.626-.038 9.113 12.472c3.009 3.997 6.084 7.888 9.139 11.729V223.83v-12.14l11.448-.024h0zm38.66 32.339v9.059c-11.063.403-22.127 1.069-33.191 2.062v-21.735-21.736l32.421-.038v9.059l-20.844.237v7.158l18.354-.372v8.784l-18.354.57v7.772c7.187-.379 14.4-.647 21.614-.82h0zm21.768-1.908l-6.393-.096v5.506V253a649.41 649.41 0 0 0-11.679.006v-20.692-20.705l18.894.007c3.746.002 6.986.617 9.754 1.889 2.752 1.264 4.881 3.091 6.365 5.454 1.492 2.374 2.26 5.161 2.26 8.355 0 3.061-.707 5.719-2.105 7.945s-3.389 3.918-6.006 5.097l4.467 6.812 4.467 6.902-12.527-.691-3.773-5.679-3.724-5.603h0zm7.367-15.027c0-1.953-.594-3.466-1.822-4.559-1.211-1.077-3.029-1.632-5.441-1.646l-6.496-.032v6.07 6.056l6.496.064c2.412.03 4.229-.474 5.441-1.491 1.226-1.03 1.822-2.515 1.822-4.462h0zm43.15 6.505l10.346.832v9.821 9.821c-2.361 1.55-5.086 2.575-8.162 3.111-3.059.533-6.131.554-9.217.147-4.307-.566-8.207-1.971-11.68-4.231-3.457-2.253-6.188-5.096-8.162-8.611-.979-1.74-1.721-3.573-2.209-5.507-.486-1.927-.744-3.956-.744-6.082s.258-4.13.744-6.019 1.229-3.671 2.209-5.339c1.971-3.352 4.729-5.958 8.213-7.85 3.523-1.911 7.471-2.894 11.887-2.894 3.85 0 7.324.712 10.396 2.189 3.063 1.474 5.621 3.662 7.674 6.518l-7.443 7.312c-2.799-3.566-6.135-5.386-10.037-5.506-3.543-.109-6.414.97-8.574 3.176-2.152 2.198-3.234 5.173-3.234 8.943 0 2.408.49 4.577 1.463 6.531a12.58 12.58 0 0 0 4.133 4.782c1.77 1.231 3.801 1.948 6.084 2.189 2.262.239 4.363-.007 6.314-.787v-6.269l-.001-6.277h0zm14.992-21.825l11.68.044v25.328 25.321l-11.68-2.452v-24.118-24.123h0zm50.416 48.369v13.451c-11.09-3.643-22.154-6.927-33.217-9.834v-25.955-25.961l32.445.191v13.394l-20.869-1.523v9.252l18.379 2.272v12.785l-18.379-3.444v10.039c7.214 1.658 14.429 3.432 21.641 5.333h0zM159.673 271.8c1.339.25 2.362.776 3.067 1.58s1.058 1.849 1.058 3.134c0 1.59-.581 2.813-1.742 3.67s-2.884 1.286-5.169 1.286h-8.358v-18.751h7.822c2.036 0 3.621.415 4.754 1.245s1.701 2.014 1.701 3.55c0 1.071-.281 1.973-.844 2.705s-1.324 1.26-2.289 1.581h0zm-9.777-7.903v7.474h6.402c1.643 0 2.906-.317 3.791-.951s1.326-1.567 1.326-2.799c0-1.215-.442-2.139-1.326-2.772s-2.147-.951-3.791-.951h-6.402v-.001zm6.992 16.394c1.821 0 3.201-.316 4.138-.951s1.407-1.611 1.407-2.933-.469-2.295-1.407-2.92-2.317-.938-4.138-.938h-6.992v7.741h6.992v.001zm16.985-17.572h1.366v18.751h-1.366v-18.751h0zm26.04 17.518v1.232h-12.938v-18.751h12.537v1.232h-11.17v7.393h9.992v1.206h-9.992v7.688h11.571 0zm25.45-17.518v18.751h-1.125l-12.779-16.287v16.287h-1.365v-18.751h1.152l12.75 16.286v-16.286h1.367 0zm24.672 17.518v1.232h-12.938v-18.751h12.537v1.232h-11.172v7.393h9.992v1.206h-9.992v7.688h11.573 0z"/><g fill-rule="evenodd"><path d="M199.283 22.435a46.37 46.37 0 0 1 19.538 4.291c6.068-5.712 13.895-9.006 22.742-7.255a18.97 18.97 0 0 1 1.475.354c1.178.334 2.049 1.121 2.504 2.258s.361 2.308-.264 3.361l-.217.365a3.77 3.77 0 0 1-4.293 1.735c-.277-.076-.563-.142-.85-.196-5.281-.989-9.922.643-13.766 3.621 11.918 8.435 19.701 22.33 19.701 38.035 0 4.687-.646 9.333-1.918 13.805 16.203 4.649 27.926 16.435 35.381 31.805 3.762 7.754 6.971 17.513 7.988 26.076l1.291 10.834-10.9.463c-13.42.569-27.281-1.403-38.727-8.064-.816 2.076-2.74 3.597-5.041 3.835-.436 2.445-.973 4.888-1.621 7.302 2.322.86 3.977 3.096 3.977 5.715 0 3.361-2.73 6.091-6.092 6.091h-2.15c-.322.688-.658 1.369-1.006 2.043-3.555 6.896-8.738 13.417-16.02 16.571-2.072.898-4.553 1.509-7.18 1.834l-4.553 15.196-4.554-15.196c-2.626-.324-5.106-.935-7.179-1.833-7.282-3.155-12.465-9.677-16.021-16.572a58.54 58.54 0 0 1-1.004-2.043h-2.151c-3.361 0-6.091-2.729-6.091-6.091 0-2.62 1.657-4.855 3.979-5.715-.648-2.415-1.186-4.857-1.623-7.302-2.301-.238-4.225-1.759-5.041-3.835-11.447 6.661-25.307 8.634-38.728 8.064l-10.9-.463 1.291-10.834c1.018-8.563 4.228-18.322 7.988-26.076 7.456-15.37 19.177-27.156 35.38-31.805-1.271-4.472-1.917-9.118-1.917-13.805 0-15.705 7.783-29.599 19.7-38.035-3.843-2.978-8.483-4.61-13.765-3.621a10.84 10.84 0 0 0-.851.196 3.77 3.77 0 0 1-4.292-1.735l-.217-.365c-.625-1.053-.716-2.224-.263-3.361s1.326-1.924 2.504-2.258c.483-.138.975-.255 1.473-.354 8.849-1.751 16.675 1.542 22.742 7.255a46.38 46.38 0 0 1 19.541-4.291h0z"/><path fill="#fff" d="M121.3 141.884s4.909-41.198 37.1-49.622l.512.95c2.031 3.673 4.297 7.207 6.438 10.813l-25.932 22.417 28.975-17.026c.922 1.741 1.837 3.626 2.511 5.452-2.435 8.042-12.321 28.599-49.604 27.016h0zm155.966 0s-4.908-41.198-37.1-49.622l-.512.95c-2.053 3.709-4.342 7.275-6.5 10.919l25.809 22.311-28.834-16.943c-.906 1.718-1.803 3.572-2.467 5.369 2.436 8.041 12.32 28.599 49.604 27.016h0z"/><path fill="#e6ebee" d="M170.904 114.866c-2.41 7.955-12.122 28.178-48.482 27.054 3.778-13.378 13.778-36.29 38.499-40.654l2.633-.22 1.797 2.98-25.933 22.417 28.976-17.026c.921 1.739 1.836 3.624 2.51 5.449h0zm56.758-.001c2.408 7.955 12.121 28.179 48.482 27.055-3.777-13.378-13.777-36.29-38.498-40.654l-2.635-.22-1.859 3.085 25.811 22.312-28.834-16.944c-.906 1.716-1.803 3.57-2.467 5.366h0z"/><path fill="#ffcb05" d="M188.377 80.845c6.361 6.852 15.451 6.852 21.813 0a2.35 2.35 0 0 0 .232-.295c1.818-.14 3.557-1.007 3.557-1.007-1.738-.441-3.6-2.204-3.676-2.277l-.002-.003h0c-.639-.86-1.643-.935-2.348-.177-5.059 5.443-12.282 5.443-17.341 0-.705-.759-1.709-.683-2.347.176l-.002.003c-.08.076-1.939 1.836-3.674 2.277 0 0 1.737.867 3.556 1.007a2.27 2.27 0 0 0 .232.296h0zm35.592 54.763h-49.373c-.092-2.246-.077-4.546.098-6.758h49.177c.174 2.212.19 4.513.098 6.758h0zm-3.237 19.075H177.83c-.699-2.271-1.274-4.582-1.742-6.893h46.388c-.468 2.311-1.044 4.622-1.744 6.893h0zm-37.51 12.181h32.12c-1.465 2.336-3.254 4.603-5.377 6.327H188.6c-2.122-1.724-3.914-3.991-5.378-6.327h0zM199.283 32.61c11.702 0 22.114 5.527 28.772 14.111-5.027-.713-9.863-.556-15.158.005-4.529.479-9.049 1.083-13.614 1.083s-9.083-.603-13.613-1.083c-5.294-.561-10.132-.719-15.158-.006 6.658-8.583 17.07-14.11 28.771-14.11h0zm36.393 36.755c-.059 6.621-1.721 13.123-4.928 18.925-4.395 7.949-12.588 19.229-14.055 28.258h-34.822c-1.466-9.03-9.659-20.31-14.053-28.258-3.207-5.802-4.869-12.304-4.927-18.923a14.37 14.37 0 0 0 1.259 1.239c3.204 2.795 7.777 3.287 11.86 3.287 9.213 0 18.024-1.554 21.388-11.421.541-1.589.967-3.237 1.107-4.914.036-.473.267-.866.777-.866s.741.391.777.861c.14 1.681.567 3.33 1.108 4.919 3.363 9.867 12.174 11.421 21.387 11.421 4.084 0 8.656-.491 11.859-3.287a14.31 14.31 0 0 0 1.263-1.241h0zm-70.103-10.327c.151 2.81.292 5.054 2.545 7.02.561.489 1.284.824 1.983 1.063 1.146.391 2.367.581 3.571.674.777.061 1.559.063 2.338.063 6.32 0 13.291-.335 15.675-7.335 1.808-5.302 1.037-6.801-4.581-7.545-5.162-.685-16.94-1.724-21.055 1.899-.166.146-.334.321-.422.528-.129.303-.148.735-.155 1.063-.017.856.054 1.715.101 2.57h0zm67.419 0c.047-.855.119-1.713.1-2.57-.006-.327-.025-.759-.154-1.063-.088-.206-.256-.379-.422-.525-4.115-3.625-15.895-2.586-21.057-1.901-5.615.744-6.387 2.243-4.578 7.545 2.385 6.999 9.355 7.334 15.674 7.334.779 0 1.563-.001 2.34-.063 1.203-.093 2.426-.283 3.568-.674.699-.239 1.424-.575 1.984-1.062 2.254-1.967 2.395-4.21 2.545-7.021h0zm-17.709-2.386c1.994 0 3.611 1.618 3.611 3.611a3.61 3.61 0 1 1-7.222 0c0-1.993 1.617-3.611 3.611-3.611h0zm-32.001 0c1.994 0 3.611 1.618 3.611 3.611a3.61 3.61 0 1 1-7.222 0c0-1.993 1.618-3.611 3.611-3.611h0z"/><path fill="#ffe73f" d="M199.282 173.191v-6.327h16.06c-1.465 2.335-3.254 4.603-5.375 6.327h-10.685 0zm-10.905-92.346c6.361 6.852 15.451 6.852 21.813 0a2.35 2.35 0 0 0 .232-.295c1.818-.14 3.557-1.007 3.557-1.007-1.738-.441-3.6-2.204-3.676-2.277l-.002-.003h0c-.639-.86-1.643-.935-2.348-.177-5.059 5.443-12.282 5.443-17.341 0-.705-.759-1.709-.683-2.347.176l-.002.003c-.08.076-1.939 1.836-3.674 2.277 0 0 1.737.867 3.556 1.007a2.27 2.27 0 0 0 .232.296h0zm23.396 35.703l.023-.17c1.42-10.42 9.641-21.311 14.689-30.444 2.254-4.078 3.635-8.551 4.121-13.155-2.551.908-5.404 1.113-8.053 1.113-9.213 0-18.023-1.554-21.387-11.421-.541-1.589-.968-3.238-1.108-4.919-.036-.47-.269-.861-.777-.861s-.741.393-.777.866c-.14 1.677-.566 3.325-1.107 4.914-3.364 9.867-12.175 11.421-21.388 11.421-2.648 0-5.5-.206-8.053-1.113a34.71 34.71 0 0 0 4.122 13.155c5.049 9.133 13.269 20.023 14.69 30.444l.023.17h24.982 0zm18.879-50.674a31.32 31.32 0 0 0-4.447-13.272c-5.063-.679-11.342-.075-14.746.376-5.615.744-6.387 2.243-4.578 7.545 2.385 6.999 9.355 7.334 15.674 7.334.779 0 1.563-.001 2.34-.063 1.203-.093 2.426-.283 3.568-.674.699-.239 1.424-.575 1.984-1.062a4.54 4.54 0 0 0 .205-.184h0zm-9.56-19.629a31.42 31.42 0 0 0-21.809-8.765 31.41 31.41 0 0 0-21.808 8.765c2.667-.002 5.366.182 8.195.482 4.53.48 9.048 1.083 13.613 1.083s9.084-.603 13.614-1.083c2.83-.3 5.527-.484 8.195-.482h0zm-48.731 6.356c-2.406 3.938-3.971 8.446-4.448 13.273.066.062.134.123.205.185.561.489 1.284.824 1.983 1.063 1.146.391 2.367.581 3.571.674.777.061 1.559.063 2.338.063 6.32 0 13.291-.335 15.675-7.335 1.808-5.302 1.037-6.801-4.581-7.545-3.402-.453-9.68-1.057-14.743-.378h0zm42.922 4.051c1.994 0 3.611 1.618 3.611 3.611a3.61 3.61 0 1 1-7.222 0c0-1.993 1.617-3.611 3.611-3.611h0zm-32.001 0c1.994 0 3.611 1.618 3.611 3.611a3.61 3.61 0 1 1-7.222 0c0-1.993 1.618-3.611 3.611-3.611h0zm16 98.031v-6.893h23.195c-.469 2.312-1.045 4.623-1.744 6.893h-21.451 0zm0-19.075v-6.758h24.589c.174 2.212.189 4.512.098 6.758h-24.687 0z"/></g></svg>